<?xml version="1.0" encoding="utf-8"?>
<!-- Generator: Adobe Illustrator 16.0.0, SVG Export Plug-In . SVG Version: 6.00 Build 0)  -->
<!DOCTYPE svg PUBLIC "-//W3C//DTD SVG 1.1//EN" "http://www.w3.org/Graphics/SVG/1.1/DTD/svg11.dtd">
<svg version="1.1" id="layer_1" xmlns="http://www.w3.org/2000/svg" xmlns:xlink="http://www.w3.org/1999/xlink" x="0px" y="0px"
	 width="26px" height="26px" viewBox="0 0 26 26" enable-background="new 0 0 26 26" xml:space="preserve">
<g id="layer_2">
	<g>
		<path fill="#FFFFFF" d="M23.059,7.343c-0.403-0.718-0.888-1.399-1.437-2.014l-19.923,9.99c0.17,0.814,0.422,1.608,0.756,2.357
			L23.059,7.343z"/>
		<path fill="#FFFFFF" d="M16.638,2.057c-0.604-0.201-1.208-0.348-1.816-0.443L2.785,7.65C2.5,8.194,2.254,8.766,2.053,9.371
			c-0.545,1.643-0.701,3.317-0.518,4.924l19.359-9.712C19.713,3.476,18.28,2.602,16.638,2.057z"/>
		<path fill="#FFFFFF" d="M4.931,21.247c1.213,1.194,2.719,2.133,4.439,2.704c0.567,0.189,1.146,0.33,1.717,0.432l12.178-6.111
			c0.266-0.521,0.494-1.065,0.683-1.634c0.571-1.724,0.713-3.491,0.489-5.176L4.931,21.247z"/>
		<path fill="#FFFFFF" d="M12.908,1.462C9.344,1.49,5.965,3.184,3.814,6.025L12.908,1.462z"/>
		<path fill="#FFFFFF" d="M12.972,24.538c3.652,0.008,7.117-1.726,9.291-4.66L12.972,24.538z"/>
		<path fill="#FFFFFF" d="M24.254,10.445c-0.175-0.768-0.426-1.51-0.746-2.219L2.898,18.561c0.375,0.682,0.819,1.332,1.332,1.926
			L24.254,10.445z"/>
	</g>
</g>
</svg>
