<?xml version="1.0" encoding="utf-8"?>
<!-- Generator: Adobe Illustrator 19.2.1, SVG Export Plug-In . SVG Version: 6.00 Build 0)  -->
<svg version="1.1" id="圖層_1" xmlns="http://www.w3.org/2000/svg" xmlns:xlink="http://www.w3.org/1999/xlink" x="0px" y="0px"
	 viewBox="0 0 700 700" style="enable-background:new 0 0 700 700;" xml:space="preserve">
<style type="text/css">
	.st0{fill:#190000;}
</style>
<g id="圖層_1_1_">
</g>
<g id="圖層_2">
	<g>
		<path class="st0" d="M569.7,218.9c-8.8-15.7-19.4-30.6-31.4-44L103,393.2c3.7,17.8,9.2,35.1,16.5,51.5L569.7,218.9z"/>
		<path class="st0" d="M429.4,103.4c-13.2-4.4-26.4-7.6-39.7-9.7L126.7,225.6c-6.2,11.9-11.6,24.4-16,37.6
			c-11.9,35.9-15.3,72.5-11.3,107.6l423-212.2C496.6,134.4,465.3,115.3,429.4,103.4z"/>
		<path class="st0" d="M173.6,522.7c26.5,26.1,59.4,46.6,97,59.1c12.4,4.1,25,7.2,37.5,9.4l266.1-133.5
			c5.8-11.4,10.8-23.3,14.9-35.7c12.5-37.7,15.6-76.3,10.7-113.1L173.6,522.7z"/>
		<path class="st0" d="M347.9,90.4c-77.9,0.6-151.7,37.6-198.7,99.7L347.9,90.4z"/>
		<path class="st0" d="M349.3,594.6c79.8,0.2,155.5-37.7,203-101.8L349.3,594.6z"/>
		<path class="st0" d="M595.8,286.7c-3.8-16.8-9.3-33-16.3-48.5L129.2,464c8.2,14.9,17.9,29.1,29.1,42.1L595.8,286.7z"/>
	</g>
</g>
</svg>
